<svg width="24" height="24" viewBox="0 0 24 24" fill="none" xmlns="http://www.w3.org/2000/svg">
<path fill-rule="evenodd" clip-rule="evenodd" d="M3 4C3 3.44772 3.44772 3 4 3H20C20.5523 3 21 3.44772 21 4V20C21 20.5523 20.5523 21 20 21H4C3.44772 21 3 20.5523 3 20V4ZM5 5V19H19V5H5Z" fill="currentColor"/>
<path d="M7 9C7 7.89543 7.89543 7 9 7C10.1046 7 11 7.89543 11 9C11 10.1046 10.1046 11 9 11C7.89543 11 7 10.1046 7 9Z" fill="currentColor"/>
<path fill-rule="evenodd" clip-rule="evenodd" d="M6 14.2361C6 13.2088 6.69 12.323 7.6984 12.0685L8.77603 11.7962C9.10481 11.7137 9.44453 11.7553 9.73633 11.913L14.5 14.5L15.4503 13.3211C15.7056 13.0064 16.0921 12.8184 16.5 12.8184H17.5858C17.851 12.8184 18.1054 12.9237 18.2929 13.1112L20 14.8184V17H6V14.2361Z" fill="currentColor"/>
</svg> 