<svg width="16" height="16" viewBox="0 0 16 16" fill="none" xmlns="http://www.w3.org/2000/svg">
<path fill-rule="evenodd" clip-rule="evenodd" d="M1.53284 7.52864C1.79392 7.26829 2.2172 7.26829 2.47828 7.52864L5.15237 10.1953C5.41344 10.4557 5.41344 10.8778 5.15237 11.1381C4.89129 11.3985 4.46801 11.3985 4.20693 11.1381L1.53284 8.47145C1.27177 8.2111 1.27177 7.78899 1.53284 7.52864Z" fill="#147AFF"/>
<path fill-rule="evenodd" clip-rule="evenodd" d="M6.21253 8.19526C6.4736 7.93491 6.89689 7.93491 7.15796 8.19526L9.16353 10.1953C9.42461 10.4556 9.42461 10.8777 9.16353 11.1381C8.90246 11.3984 8.47917 11.3984 8.2181 11.1381L6.21253 9.13807C5.95146 8.87772 5.95146 8.45561 6.21253 8.19526Z" fill="#147AFF"/>
<path fill-rule="evenodd" clip-rule="evenodd" d="M10.5005 4.86189C10.7616 5.12224 10.7616 5.54435 10.5005 5.8047L5.15235 11.138C4.89127 11.3984 4.46799 11.3984 4.20691 11.138C3.94584 10.8777 3.94584 10.4556 4.20691 10.1952L9.5551 4.86189C9.81617 4.60154 10.2395 4.60154 10.5005 4.86189Z" fill="#147AFF"/>
<path fill-rule="evenodd" clip-rule="evenodd" d="M14.5117 4.86189C14.7728 5.12224 14.7728 5.54435 14.5117 5.8047L9.16352 11.138C8.90244 11.3984 8.47916 11.3984 8.21808 11.138C7.95701 10.8777 7.95701 10.4556 8.21808 10.1952L13.5663 4.86189C13.8273 4.60154 14.2506 4.60154 14.5117 4.86189Z" fill="#147AFF"/>
</svg>
