<svg width="16" height="16" viewBox="0 0 16 16" fill="none" xmlns="http://www.w3.org/2000/svg">
<path d="M13.9999 3.00002L4.99988 3L4.99988 4L13.9999 4.00002V3.00002Z" fill="black" fill-opacity="0.9" style="fill:black;fill-opacity:0.9;"/>
<path d="M3.49988 3L2.00049 3V4L3.49988 4V3Z" fill="black" fill-opacity="0.9" style="fill:black;fill-opacity:0.9;"/>
<path d="M4.99988 7.50006L13.9999 7.50009V8.50009L4.99988 8.50006L4.99988 7.50006Z" fill="black" fill-opacity="0.9" style="fill:black;fill-opacity:0.9;"/>
<path d="M2.00049 7.50006H3.49988V8.50006H2.00049V7.50006Z" fill="black" fill-opacity="0.9" style="fill:black;fill-opacity:0.9;"/>
<path d="M4.99988 12L7.99988 12V13L4.99988 13L4.99988 12Z" fill="black" fill-opacity="0.9" style="fill:black;fill-opacity:0.9;"/>
<path d="M2.00049 12H3.49988V13H2.00049V12Z" fill="black" fill-opacity="0.9" style="fill:black;fill-opacity:0.9;"/>
<path d="M11.3539 14.2822L14.9288 10.7071L14.2217 10L11.3538 12.8679L9.70711 11.2212L9 11.9283L11.3539 14.2822Z" fill="black" fill-opacity="0.9" style="fill:black;fill-opacity:0.9;"/>
</svg>
