<svg width="16" height="16" viewBox="0 0 16 16" fill="none" xmlns="http://www.w3.org/2000/svg">
<path fill-rule="evenodd" clip-rule="evenodd" d="M5.5 11.5V13.5362L8.29982 11.5H13.5V3L2.5 3V11.5H5.5ZM5.77054 14.576C5.24176 14.9605 4.5 14.5828 4.5 13.929V12.5H2.5C1.94772 12.5 1.5 12.0523 1.5 11.5V3C1.5 2.44772 1.94772 2 2.5 2H13.5C14.0523 2 14.5 2.44772 14.5 3V11.5C14.5 12.0523 14.0523 12.5 13.5 12.5H8.625L5.77054 14.576Z" fill="black" fill-opacity="0.9" style="fill:black;fill-opacity:0.9;"/>
<path fill-rule="evenodd" clip-rule="evenodd" d="M11 6.5H5V5.5H11V6.5Z" fill="black" fill-opacity="0.9" style="fill:black;fill-opacity:0.9;"/>
<path fill-rule="evenodd" clip-rule="evenodd" d="M9 9H5V8H9V9Z" fill="black" fill-opacity="0.9" style="fill:black;fill-opacity:0.9;"/>
</svg>
