<svg width="16" height="16" viewBox="0 0 16 16" fill="none" xmlns="http://www.w3.org/2000/svg">
<path d="M3.09766 10V13H6.09766V14H3.09766C2.54537 14 2.09766 13.5523 2.09766 13V10H3.09766ZM10.6787 7.19824C10.8229 6.87663 11.282 6.88519 11.4141 7.21191L13.96 13.5244C14.0393 13.7215 13.8942 13.9365 13.6816 13.9365H13.2432C13.121 13.9364 13.0106 13.8623 12.9648 13.749L12.3408 12.1973H9.53418L8.83496 13.7598C8.78654 13.8673 8.67949 13.9364 8.56152 13.9365H8.12305C7.90602 13.9363 7.76133 13.7129 7.84961 13.5146L10.6787 7.19824ZM9.98242 11.1973H11.9385L11.0127 8.89551L9.98242 11.1973ZM5.93555 2.96191H8.43848C8.52699 2.96191 8.61222 2.99669 8.6748 3.05859C8.73732 3.12048 8.77245 3.2045 8.77246 3.29199V7.25293L8.76562 7.31836C8.75277 7.38151 8.72148 7.44005 8.6748 7.48633L8.62402 7.52832C8.56961 7.56418 8.50483 7.58301 8.43848 7.58301H5.93555V8.54492H4.93555V7.58301H2.43164L2.36621 7.57715L2.30371 7.55859C2.28359 7.55035 2.26413 7.54021 2.24609 7.52832L2.19531 7.48633C2.17996 7.4711 2.16632 7.45432 2.1543 7.43652L2.12305 7.37988C2.11464 7.3598 2.10875 7.33861 2.10449 7.31738L2.09766 7.25293V3.29199C2.09766 3.24879 2.10638 3.20595 2.12305 3.16602C2.1398 3.12601 2.16437 3.08923 2.19531 3.05859C2.22628 3.02797 2.26326 3.00389 2.30371 2.9873C2.32396 2.97901 2.34482 2.97198 2.36621 2.96777L2.43164 2.96191H4.93555V2H5.93555V2.96191ZM3.09766 6.58301H4.93555V3.96191H3.09766V6.58301ZM5.93555 6.58301H7.77246V3.96191H5.93555V6.58301ZM13 2C13.5523 2 14 2.44772 14 3V6H13V3H10V2H13Z" fill="black" fill-opacity="0.9" style="fill:black;fill-opacity:0.9;"/>
</svg>
