<svg width="30" height="30" viewBox="0 0 30 30" fill="none" xmlns="http://www.w3.org/2000/svg">
    <path d="M19.0732 4C19.6413 4.00011 20.161 4.32101 20.415 4.8291L20.9473 5.89453C21.2861 6.57204 21.9788 7 22.7363 7H26.5C27.3284 7 28 7.67157 28 8.5V23.5C28 24.3284 27.3284 25 26.5 25H3.5C2.67157 25 2 24.3284 2 23.5V8.5C2 7.67157 2.67157 7 3.5 7H7.26367C8.02108 7 8.71388 6.57192 9.05273 5.89453L9.58496 4.8291C9.83901 4.32101 10.3587 4.00011 10.9268 4H19.0732ZM15.0039 9.50098C11.6902 9.50098 9.00391 12.1873 9.00391 15.501C9.00401 18.8146 11.6903 21.501 15.0039 21.501C18.3175 21.5009 21.0038 18.8146 21.0039 15.501C21.0039 12.1873 18.3176 9.50104 15.0039 9.50098ZM15.0029 11.5C17.2118 11.5003 19.0029 13.291 19.0029 15.5C19.0027 17.7088 17.2117 19.4997 15.0029 19.5C12.794 19.5 11.0032 17.7089 11.0029 15.5C11.0029 13.2909 12.7938 11.5 15.0029 11.5Z" fill="black" fill-opacity="0.55"/>
</svg>
