<svg width="19" height="20" viewBox="0 0 19 20" fill="none" xmlns="http://www.w3.org/2000/svg">
    <path d="M9.37822 0.5C4.2068 0.5 0 4.7068 0 9.87822C0 15.0496 4.2068 19.2564 9.37822 19.2564C14.5496 19.2564 18.7564 15.0496 18.7564 9.87822C18.7564 4.7068 14.5496 0.5 9.37822 0.5ZM11.4099 7.60065C11.4099 7.04533 11.8601 6.59584 12.4147 6.59584C12.9694 6.59584 13.4196 7.04533 13.4196 7.60065V8.94039C13.4196 9.49572 12.9694 9.9452 12.4147 9.9452C11.8601 9.9452 11.4099 9.49505 11.4099 8.94039V7.60065ZM5.38109 7.60065C5.38109 7.04533 5.83057 6.59584 6.3859 6.59584C6.94122 6.59584 7.3907 7.04533 7.3907 7.60065V8.94039C7.3907 9.49572 6.94122 9.9452 6.3859 9.9452C5.83057 9.9452 5.38109 9.49505 5.38109 8.94039V7.60065Z" fill="url(#paint0_linear_4034_5967)"/>
    <defs>
        <linearGradient id="paint0_linear_4034_5967" x1="9" y1="27" x2="50" y2="-23" gradientUnits="userSpaceOnUse">
            <stop stop-color="#1C66E5"/>
            <stop offset="1" stop-color="#CCE2FF"/>
        </linearGradient>
    </defs>
</svg>
