<svg width="30" height="30" viewBox="0 0 30 30" fill="none" xmlns="http://www.w3.org/2000/svg">
    <path d="M10.5732 3C11.1413 3.00011 11.661 3.32101 11.915 3.8291L12.4473 4.89453C12.7861 5.57204 13.4788 6 14.2363 6H26.5C27.3284 6 28 6.67157 28 7.5V23.5C28 24.3284 27.3284 25 26.5 25H3.5C2.67157 25 2 24.3284 2 23.5V4.5C2 3.67157 2.67157 3 3.5 3H10.5732ZM5.99512 9.00391C5.44297 9.00391 4.99535 9.45182 4.99512 10.0039C4.99512 10.5562 5.44283 11.0039 5.99512 11.0039H23.9951C24.5473 11.0038 24.9951 10.5562 24.9951 10.0039C24.9949 9.45186 24.5472 9.00397 23.9951 9.00391H5.99512Z" fill="black" fill-opacity="0.55"/>
</svg>
