<svg width="30" height="30" viewBox="0 0 30 30" fill="none" xmlns="http://www.w3.org/2000/svg">
    <path d="M4 5C2.89543 5 2 5.89543 2 7V23C2 24.1046 2.89543 25 4 25H26C27.1046 25 28 24.1046 28 23V7C28 5.89543 27.1046 5 26 5H4ZM11.5088 19.999C11.7848 19.999 12.0086 20.223 12.0088 20.499V21.499C12.0088 21.7752 11.7849 21.999 11.5088 21.999H5.50879C5.23265 21.999 5.00879 21.7752 5.00879 21.499V20.499C5.00899 20.2231 5.23277 19.999 5.50879 19.999H11.5088ZM15.5068 16.002C15.783 16.002 16.0068 16.2258 16.0068 16.502V17.501C16.0068 17.7771 15.783 18.002 15.5068 18.002H5.50684C5.23086 18.002 5.0071 17.7779 5.00684 17.502V16.502C5.00684 16.2258 5.23069 16.002 5.50684 16.002H15.5068ZM24.5088 7.99805C24.7848 7.99805 25.0096 8.22204 25.0098 8.49805V12.498C25.0098 12.7742 24.7849 12.998 24.5088 12.998H20.5098C20.2336 12.998 20.0098 12.7742 20.0098 12.498V8.49805C20.0099 8.22204 20.2337 7.99805 20.5098 7.99805H24.5088Z" fill="black" fill-opacity="0.55"/>
</svg>
