<svg width="15" height="16" viewBox="0 0 15 16" fill="none" xmlns="http://www.w3.org/2000/svg">
<g clip-path="url(#clip0_5356_11045)">
<path d="M0.755496 14.0112H14.0522C14.4692 14.0112 14.8077 14.2998 14.8077 14.6574C14.8077 15.0138 14.4692 15.3047 14.0522 15.3047H0.755496C0.338462 15.3047 0 15.015 0 14.6574C0 14.3009 0.338462 14.01 0.755496 14.01V14.0112ZM7.92727 3.86166L2.34265 9.17386V11.4091H4.69254L10.2772 6.09693L7.92727 3.86166ZM8.88826 2.9464L11.2394 5.18281L12.2004 4.26755L9.85046 2.03228L8.88826 2.9464V2.9464ZM1.20397 8.42762L9.31375 0.711128V0.711128C9.60842 0.430126 10.0868 0.429551 10.3822 0.709844C10.3826 0.710271 10.3831 0.710699 10.3835 0.711128L13.588 3.75932C13.8831 4.03993 13.8832 4.49495 13.5882 4.77564C13.5881 4.77568 13.5881 4.77573 13.588 4.77577L5.47704 12.4923C5.33503 12.6273 5.14235 12.703 4.94154 12.7027H1.73703C1.32025 12.7021 0.982745 12.3805 0.982745 11.984V8.93699C0.982745 8.74612 1.06132 8.5633 1.20395 8.42877L1.20397 8.42762Z" fill="#1C66E5"/>
</g>
<defs>
<clipPath id="clip0_5356_11045">
<rect width="15" height="15" fill="white" transform="translate(0 0.5)"/>
</clipPath>
</defs>
</svg>
