<svg width="20" height="20" viewBox="0 0 20 20" fill="none" xmlns="http://www.w3.org/2000/svg">
<path d="M11.8427 18.3046C13.8068 16.0966 15 13.1876 15 9.99997C15 6.81232 13.8068 3.90335 11.8427 1.69533L12.777 0.864868C14.9375 3.29369 16.25 6.49356 16.25 9.99997C16.25 13.5064 14.9375 16.7062 12.777 19.1351L11.8427 18.3046Z" fill="black" fill-opacity="0.9" style="fill:black;fill-opacity:0.9;"/>
<path d="M9.97417 3.35626C11.5455 5.12268 12.5 7.44985 12.5 9.99997C12.5 12.5501 11.5455 14.8773 9.97417 16.6437L9.0399 15.8132C10.4148 14.2676 11.25 12.2313 11.25 9.99997C11.25 7.76862 10.4148 5.73234 9.0399 4.18672L9.97417 3.35626Z" fill="black" fill-opacity="0.9" style="fill:black;fill-opacity:0.9;"/>
<path d="M7.17136 14.1523C8.15341 13.0483 8.75 11.5938 8.75 9.99997C8.75 8.40615 8.15341 6.95166 7.17136 5.84765L6.23709 6.67811C7.02273 7.56132 7.5 8.72491 7.5 9.99997C7.5 11.275 7.02273 12.4386 6.23709 13.3218L7.17136 14.1523Z" fill="black" fill-opacity="0.9" style="fill:black;fill-opacity:0.9;"/>
<path d="M4.36854 11.6609C4.76136 11.2193 5 10.6375 5 9.99997C5 9.36244 4.76136 8.78065 4.36854 8.33904L2.5 9.99997L4.36854 11.6609Z" fill="black" fill-opacity="0.9" style="fill:black;fill-opacity:0.9;"/>
</svg>
